<svg width="220" height="64" viewBox="0 0 220 64" fill="none" xmlns="http://www.w3.org/2000/svg" role="img" aria-labelledby="title desc">
  <title id="title">Diamond Oto ve Halı Yıkama Logo</title>
  <desc id="desc">Altın renkli diamond işareti ve işletme adı</desc>
  <defs>
    <linearGradient id="g" x1="0" y1="0" x2="1" y2="1">
      <stop offset="0" stop-color="#FFF4BD"/>
      <stop offset="0.45" stop-color="#E7B23C"/>
      <stop offset="1" stop-color="#8F5B08"/>
    </linearGradient>
  </defs>
  <path d="M30.4 6.5L55.4 22.1L45.6 55.5H15.1L5.3 22.1L30.4 6.5Z" stroke="url(#g)" stroke-width="4"/>
  <path d="M30.4 15.3L45.5 24.7L39.6 45H21.2L15.3 24.7L30.4 15.3Z" fill="url(#g)"/>
  <path d="M27.1 25.8H33.5C39.4 25.8 43.5 29.6 43.5 35.2C43.5 40.8 39.4 44.6 33.5 44.6H27.1V25.8ZM33.2 39.1C36.3 39.1 38.1 37.6 38.1 35.2C38.1 32.8 36.3 31.3 33.2 31.3H32.3V39.1H33.2Z" fill="#101010"/>
  <text x="70" y="30" font-family="Inter, Arial, sans-serif" font-weight="900" font-size="22" letter-spacing="1" fill="#F4C44D">DIAMOND</text>
  <text x="72" y="49" font-family="Inter, Arial, sans-serif" font-weight="700" font-size="11" letter-spacing="2.4" fill="#ffffff">OTO VE HALI YIKAMA</text>
</svg>
